<svg xmlns="http://www.w3.org/2000/svg" version="1.1" xmlns:xlink="http://www.w3.org/1999/xlink" xmlns:svgjs="http://svgjs.dev/svgjs" width="100%" height="100%" viewBox="0 0 1000 600"><rect width="1000" height="600" x="0" y="0" fill="#fafafa"/><g><circle r="166.66666666666666" cx="389.13476053873694" cy="411.3570673740966" fill="#080a52" transform="matrix(0.5618781411309062,0,0,0.5618781411309062,0,68.8674575438049)"/><path d="M320.5873277728379 486.3570695620203L303.71811485952844 486.3570695620203L303.71811485952844 336.3570700035362L326.8373277544414 336.3570700035362L389.1347812747763 410.51794941487776L451.43223479511124 336.3570700035362L474.5514476900242 336.3570700035362L474.5514476900242 486.3570695620203L457.6822347767148 486.3570695620203L457.6822347767148 355.51216253974695L389.1347812747763 436.9936437813926L320.5873277728379 355.51216253974695L320.5873277728379 486.3570695620203Z " fill="white" transform="matrix(0.5618781411309062,0,0,0.5618781411309062,0,68.8674575438049)"/><path d="M656.0039918963729 486.3570695620203L639.1347789830635 486.3570695620203L639.1347789830635 336.3570700035362L662.2539918779764 336.3570700035362L724.5514453983113 410.51794941487776L786.8488989186462 336.3570700035362L809.9681118135593 336.3570700035362L809.9681118135593 486.3570695620203L793.0988989002498 486.3570695620203L793.0988989002498 355.51216253974695L724.5514453983113 436.9936437813926L656.0039918963729 355.51216253974695L656.0039918963729 486.3570695620203ZM954.7597780540405 486.3570695620203L856.8431116755855 486.3570695620203Q849.9854728068817 486.3570695620203 844.2563061570785 482.91378253511834Q838.5271395072753 479.4704955082164 835.0838524803734 473.74132885841317Q831.6405654534714 468.01216220861 831.6405654534714 461.1545233399061L831.6405654534714 461.1545233399061L831.6405654534714 417.4045234686816L937.4854725493308 417.4045234686816L937.4854725493308 390.72628280646666Q937.4854725493308 387.39873651996476 935.0838521860294 384.9971161566634Q932.682231822728 382.5954957933621 929.3546855362263 382.5954957933621L929.3546855362263 382.5954957933621L831.6405654534714 382.5954957933621L831.6405654534714 365.52373658435255L929.3546855362263 365.52373658435255Q936.4438058857302 365.52373658435255 942.1729725355334 368.96702361125443Q947.9021391853366 372.4103106381564 951.3164910271385 378.1394772879596Q954.7597780540405 383.8686439377628 954.7597780540405 390.72628280646666L954.7597780540405 390.72628280646666L954.7597780540405 486.3570695620203ZM856.8431116755855 469.28531035301074L856.8431116755855 469.28531035301074L937.4854725493308 469.28531035301074L937.4854725493308 434.4762826776912L848.712324662481 434.4762826776912L848.712324662481 461.1545233399061Q848.712324662481 464.482069626408 851.1139450257823 466.88368998970935Q853.5155653890837 469.28531035301074 856.8431116755855 469.28531035301074ZM1001.6347779160667 486.3570695620203L1001.6347779160667 486.3570695620203Q994.7771390473629 486.3570695620203 989.0479723975596 482.91378253511834Q983.3188057477564 479.4704955082164 979.8755187208545 473.74132885841317Q976.4322316939526 468.01216220861 976.4322316939526 461.1545233399061L976.4322316939526 461.1545233399061L976.4322316939526 365.52373658435255L993.5039909029622 365.52373658435255L993.5039909029622 461.1545233399061Q993.5039909029622 464.482069626408 995.9056112662636 466.88368998970935Q998.3072316295649 469.28531035301074 1001.6347779160667 469.28531035301074L1001.6347779160667 469.28531035301074L1074.1463517767074 469.28531035301074Q1077.4738980632092 469.28531035301074 1079.9623239818106 466.88368998970935Q1082.4796850855123 464.482069626408 1082.4796850855123 461.1545233399061L1082.4796850855123 461.1545233399061L1082.4796850855123 365.52373658435255L1099.5514442945218 365.52373658435255L1099.5514442945218 461.1545233399061Q1099.5514442945218 468.01216220861 1096.1081572676198 473.74132885841317Q1092.693805425818 479.4704955082164 1086.964638776015 482.91378253511834Q1081.2354721262113 486.3570695620203 1074.1463517767074 486.3570695620203L1074.1463517767074 486.3570695620203L1001.6347779160667 486.3570695620203ZM1134.5630182655414 486.3570695620203L1117.2597775757317 486.3570695620203L1117.2597775757317 486.3570695620203L1117.2597775757317 365.52373658435255L1276.837323402321 365.52373658435255Q1283.926443751825 365.52373658435255 1289.6556104016286 368.96702361125443Q1295.3847770514317 372.4103106381564 1298.7123233379334 378.1394772879596Q1302.0688048095353 383.8686439377628 1302.0688048095353 390.72628280646666L1302.0688048095353 390.72628280646666L1302.0688048095353 486.3570695620203L1285.170656711126 486.3570695620203L1285.170656711126 390.72628280646666Q1285.170656711126 387.39873651996476 1282.6822307925245 384.9971161566634Q1280.193804873923 382.5954957933621 1276.837323402321 382.5954957933621L1276.837323402321 382.5954957933621L1226.634777253793 382.5954957933621Q1223.3072309672912 382.5954957933621 1220.9056106039898 384.9971161566634Q1218.5039902406884 387.39873651996476 1218.5039902406884 390.72628280646666L1218.5039902406884 390.72628280646666L1218.5039902406884 486.3570695620203L1201.2296847359785 486.3570695620203L1201.2296847359785 390.72628280646666Q1201.2296847359785 387.39873651996476 1198.8280643726775 384.9971161566634Q1196.4264440093762 382.5954957933621 1193.098897722874 382.5954957933621L1193.098897722874 382.5954957933621L1142.6938052786459 382.5954957933621Q1139.337323807044 382.5954957933621 1136.9646386288427 384.9971161566634Q1134.5630182655414 387.39873651996476 1134.5630182655414 390.72628280646666L1134.5630182655414 390.72628280646666L1134.5630182655414 486.3570695620203ZM1443.735471059215 486.3570695620203L1345.81880468076 486.3570695620203Q1338.932230626956 486.3570695620203 1333.2030639771529 482.91378253511834Q1327.4738973273497 479.4704955082164 1324.0306103004477 473.74132885841317Q1320.5873232735457 468.01216220861 1320.5873232735457 461.1545233399061L1320.5873232735457 461.1545233399061L1320.5873232735457 417.4045234686816L1426.4322303694053 417.4045234686816L1426.4322303694053 390.72628280646666Q1426.4322303694053 387.39873651996476 1424.0306100061039 384.9971161566634Q1421.6289896428025 382.5954957933621 1418.3014433563008 382.5954957933621L1418.3014433563008 382.5954957933621L1320.5873232735457 382.5954957933621L1320.5873232735457 365.52373658435255L1418.3014433563008 365.52373658435255Q1425.3905637058047 365.52373658435255 1431.1197303556078 368.96702361125443Q1436.848897005411 372.4103106381564 1440.292184032313 378.1394772879596Q1443.735471059215 383.8686439377628 1443.735471059215 390.72628280646666L1443.735471059215 390.72628280646666L1443.735471059215 486.3570695620203ZM1345.81880468076 469.28531035301074L1345.81880468076 469.28531035301074L1426.4322303694053 469.28531035301074L1426.4322303694053 434.4762826776912L1337.6880176676555 434.4762826776912L1337.6880176676555 461.1545233399061Q1337.6880176676555 464.482069626408 1340.0896380309568 466.88368998970935Q1342.462323209158 469.28531035301074 1345.81880468076 469.28531035301074ZM1481.2354709488359 486.3570695620203L1464.1347765547262 486.3570695620203L1464.1347765547262 486.3570695620203L1464.1347765547262 390.72628280646666Q1464.1347765547262 383.8686439377628 1467.5780635816282 378.1394772879596Q1471.0213506085302 372.4103106381564 1476.7505172583333 368.96702361125443Q1482.4796839081368 365.52373658435255 1489.3373227768402 365.52373658435255L1489.3373227768402 365.52373658435255L1557.2771373916785 365.52373658435255L1557.2771373916785 382.5954957933621L1489.3373227768402 382.5954957933621Q1486.0097764903385 382.5954957933621 1483.608156127037 384.9971161566634Q1481.2354709488359 387.39873651996476 1481.2354709488359 390.72628280646666L1481.2354709488359 390.72628280646666L1481.2354709488359 486.3570695620203Z " fill="blue" transform="matrix(0.5618781411309062,0,0,0.5618781411309062,0,68.8674575438049)"/></g></svg>